<svg xmlns="http://www.w3.org/2000/svg" viewBox="0 0 512 512">
  <defs>
    <linearGradient id="g" x1="0" y1="0" x2="1" y2="1">
      <stop offset="0" stop-color="#ff3ea5"/>
      <stop offset="1" stop-color="#ff1744"/>
    </linearGradient>
    <filter id="s" x="-20%" y="-20%" width="140%" height="140%">
      <feDropShadow dx="0" dy="18" stdDeviation="22" flood-color="#ff1744" flood-opacity="0.35"/>
    </filter>
  </defs>
  <rect width="512" height="512" rx="116" fill="#050006"/>
  <path d="M92 378V126h74v190h122v62H92Z" fill="url(#g)" filter="url(#s)"/>
  <path d="M326 383c-49 0-87-35-87-83 0-48 38-82 87-82 50 0 88 34 88 82 0 48-38 83-88 83Zm0-60c16 0 29-10 29-23 0-13-13-23-29-23-15 0-28 10-28 23 0 13 13 23 28 23Z" fill="#fff" opacity="0.95"/>
  <circle cx="386" cy="139" r="31" fill="#ff3ea5"/>
</svg>
